<mxfile host="app.diagrams.net" modified="2024-02-21T02:43:36.570Z" agent="Mozilla/5.0 (Windows NT 10.0; Win64; x64) AppleWebKit/537.36 (KHTML, like Gecko) Chrome/121.0.0.0 Safari/537.36" etag="LdnOxn5H_5WpR5pTYRUz" version="23.1.5" type="github">
  <diagram name="第 1 页" id="mGLvYB11gg4qZ1axqt9Y">
    <mxGraphModel dx="1195" dy="615" grid="1" gridSize="10" guides="1" tooltips="1" connect="1" arrows="1" fold="1" page="1" pageScale="1" pageWidth="900" pageHeight="1600" math="0" shadow="0">
      <root>
        <mxCell id="0" />
        <mxCell id="1" parent="0" />
        <mxCell id="UZCxcJer-DqImSYxnbFZ-7" style="edgeStyle=orthogonalEdgeStyle;rounded=0;orthogonalLoop=1;jettySize=auto;html=1;" edge="1" parent="1" source="UZCxcJer-DqImSYxnbFZ-6">
          <mxGeometry relative="1" as="geometry">
            <mxPoint x="440" y="130" as="targetPoint" />
          </mxGeometry>
        </mxCell>
        <mxCell id="UZCxcJer-DqImSYxnbFZ-6" value="" style="verticalLabelPosition=bottom;verticalAlign=top;html=1;shape=mxgraph.flowchart.on-page_reference;" vertex="1" parent="1">
          <mxGeometry x="410" y="20" width="60" height="60" as="geometry" />
        </mxCell>
        <mxCell id="UZCxcJer-DqImSYxnbFZ-9" style="edgeStyle=orthogonalEdgeStyle;rounded=0;orthogonalLoop=1;jettySize=auto;html=1;exitX=0.5;exitY=1;exitDx=0;exitDy=0;" edge="1" parent="1" source="UZCxcJer-DqImSYxnbFZ-8">
          <mxGeometry relative="1" as="geometry">
            <mxPoint x="440" y="240" as="targetPoint" />
          </mxGeometry>
        </mxCell>
        <mxCell id="UZCxcJer-DqImSYxnbFZ-13" value="同意" style="edgeLabel;html=1;align=center;verticalAlign=middle;resizable=0;points=[];" vertex="1" connectable="0" parent="UZCxcJer-DqImSYxnbFZ-9">
          <mxGeometry x="-0.01" relative="1" as="geometry">
            <mxPoint as="offset" />
          </mxGeometry>
        </mxCell>
        <mxCell id="UZCxcJer-DqImSYxnbFZ-8" value="提交申请" style="rounded=0;whiteSpace=wrap;html=1;" vertex="1" parent="1">
          <mxGeometry x="380" y="130" width="120" height="60" as="geometry" />
        </mxCell>
        <mxCell id="UZCxcJer-DqImSYxnbFZ-11" style="edgeStyle=orthogonalEdgeStyle;rounded=0;orthogonalLoop=1;jettySize=auto;html=1;exitX=0;exitY=0.5;exitDx=0;exitDy=0;entryX=0;entryY=0.5;entryDx=0;entryDy=0;" edge="1" parent="1" source="UZCxcJer-DqImSYxnbFZ-10" target="UZCxcJer-DqImSYxnbFZ-8">
          <mxGeometry relative="1" as="geometry">
            <Array as="points">
              <mxPoint x="330" y="280" />
              <mxPoint x="330" y="160" />
            </Array>
          </mxGeometry>
        </mxCell>
        <mxCell id="UZCxcJer-DqImSYxnbFZ-12" value="不同意，原因" style="edgeLabel;html=1;align=center;verticalAlign=middle;resizable=0;points=[];" vertex="1" connectable="0" parent="UZCxcJer-DqImSYxnbFZ-11">
          <mxGeometry x="0.0764" y="-2" relative="1" as="geometry">
            <mxPoint as="offset" />
          </mxGeometry>
        </mxCell>
        <mxCell id="UZCxcJer-DqImSYxnbFZ-17" style="edgeStyle=orthogonalEdgeStyle;rounded=0;orthogonalLoop=1;jettySize=auto;html=1;entryX=0.5;entryY=0;entryDx=0;entryDy=0;" edge="1" parent="1" source="UZCxcJer-DqImSYxnbFZ-10" target="UZCxcJer-DqImSYxnbFZ-16">
          <mxGeometry relative="1" as="geometry" />
        </mxCell>
        <mxCell id="UZCxcJer-DqImSYxnbFZ-10" value="" style="rhombus;whiteSpace=wrap;html=1;" vertex="1" parent="1">
          <mxGeometry x="400" y="240" width="80" height="80" as="geometry" />
        </mxCell>
        <mxCell id="UZCxcJer-DqImSYxnbFZ-40" style="edgeStyle=orthogonalEdgeStyle;rounded=0;orthogonalLoop=1;jettySize=auto;html=1;entryX=0.5;entryY=0;entryDx=0;entryDy=0;" edge="1" parent="1" source="UZCxcJer-DqImSYxnbFZ-16" target="UZCxcJer-DqImSYxnbFZ-39">
          <mxGeometry relative="1" as="geometry" />
        </mxCell>
        <mxCell id="UZCxcJer-DqImSYxnbFZ-16" value="" style="ellipse;html=1;shape=endState;fillColor=#000000;strokeColor=#ff0000;" vertex="1" parent="1">
          <mxGeometry x="425" y="370" width="30" height="30" as="geometry" />
        </mxCell>
        <mxCell id="UZCxcJer-DqImSYxnbFZ-37" value="用车申请流程" style="swimlane;verticalAlign=middle;fontFamily=Verdana;direction=north;html=1;flipH=0;flipV=1;horizontal=1;whiteSpace=wrap;startSize=23;labelPosition=center;verticalLabelPosition=middle;align=center;" vertex="1" parent="1">
          <mxGeometry x="220" width="400" height="410" as="geometry" />
        </mxCell>
        <mxCell id="UZCxcJer-DqImSYxnbFZ-38" value="司机接单流程" style="swimlane;verticalAlign=middle;fontFamily=Verdana;direction=north;html=1;flipH=0;flipV=1;horizontal=1;whiteSpace=wrap;startSize=23;labelPosition=center;verticalLabelPosition=middle;align=center;" vertex="1" parent="1">
          <mxGeometry x="220" y="410" width="400" height="810" as="geometry" />
        </mxCell>
        <mxCell id="UZCxcJer-DqImSYxnbFZ-47" style="edgeStyle=orthogonalEdgeStyle;rounded=0;orthogonalLoop=1;jettySize=auto;html=1;exitX=0.5;exitY=1;exitDx=0;exitDy=0;entryX=0.5;entryY=0;entryDx=0;entryDy=0;" edge="1" parent="UZCxcJer-DqImSYxnbFZ-38" source="UZCxcJer-DqImSYxnbFZ-39" target="UZCxcJer-DqImSYxnbFZ-46">
          <mxGeometry relative="1" as="geometry" />
        </mxCell>
        <mxCell id="UZCxcJer-DqImSYxnbFZ-59" value="确认接单" style="edgeLabel;html=1;align=center;verticalAlign=middle;resizable=0;points=[];" vertex="1" connectable="0" parent="UZCxcJer-DqImSYxnbFZ-47">
          <mxGeometry x="-0.2083" relative="1" as="geometry">
            <mxPoint as="offset" />
          </mxGeometry>
        </mxCell>
        <mxCell id="UZCxcJer-DqImSYxnbFZ-39" value="选择车队、车辆、司机，发起接单申请" style="rounded=0;whiteSpace=wrap;html=1;" vertex="1" parent="UZCxcJer-DqImSYxnbFZ-38">
          <mxGeometry x="160" y="40" width="120" height="60" as="geometry" />
        </mxCell>
        <mxCell id="UZCxcJer-DqImSYxnbFZ-56" value="" style="edgeStyle=orthogonalEdgeStyle;rounded=0;orthogonalLoop=1;jettySize=auto;html=1;" edge="1" parent="UZCxcJer-DqImSYxnbFZ-38" source="UZCxcJer-DqImSYxnbFZ-46" target="UZCxcJer-DqImSYxnbFZ-55">
          <mxGeometry relative="1" as="geometry" />
        </mxCell>
        <mxCell id="UZCxcJer-DqImSYxnbFZ-46" value="司机接单" style="rounded=0;whiteSpace=wrap;html=1;" vertex="1" parent="UZCxcJer-DqImSYxnbFZ-38">
          <mxGeometry x="160" y="140" width="120" height="60" as="geometry" />
        </mxCell>
        <mxCell id="UZCxcJer-DqImSYxnbFZ-58" value="" style="edgeStyle=orthogonalEdgeStyle;rounded=0;orthogonalLoop=1;jettySize=auto;html=1;" edge="1" parent="UZCxcJer-DqImSYxnbFZ-38" source="UZCxcJer-DqImSYxnbFZ-55" target="UZCxcJer-DqImSYxnbFZ-57">
          <mxGeometry relative="1" as="geometry" />
        </mxCell>
        <mxCell id="UZCxcJer-DqImSYxnbFZ-55" value="出车中" style="whiteSpace=wrap;html=1;rounded=0;" vertex="1" parent="UZCxcJer-DqImSYxnbFZ-38">
          <mxGeometry x="160" y="250" width="120" height="60" as="geometry" />
        </mxCell>
        <mxCell id="UZCxcJer-DqImSYxnbFZ-67" value="" style="edgeStyle=orthogonalEdgeStyle;rounded=0;orthogonalLoop=1;jettySize=auto;html=1;" edge="1" parent="UZCxcJer-DqImSYxnbFZ-38" source="UZCxcJer-DqImSYxnbFZ-57" target="UZCxcJer-DqImSYxnbFZ-66">
          <mxGeometry relative="1" as="geometry" />
        </mxCell>
        <mxCell id="UZCxcJer-DqImSYxnbFZ-57" value="提交出行记录" style="whiteSpace=wrap;html=1;rounded=0;" vertex="1" parent="UZCxcJer-DqImSYxnbFZ-38">
          <mxGeometry x="160" y="360" width="120" height="60" as="geometry" />
        </mxCell>
        <mxCell id="UZCxcJer-DqImSYxnbFZ-74" value="" style="edgeStyle=orthogonalEdgeStyle;rounded=0;orthogonalLoop=1;jettySize=auto;html=1;" edge="1" parent="UZCxcJer-DqImSYxnbFZ-38" source="UZCxcJer-DqImSYxnbFZ-66" target="UZCxcJer-DqImSYxnbFZ-73">
          <mxGeometry relative="1" as="geometry" />
        </mxCell>
        <mxCell id="UZCxcJer-DqImSYxnbFZ-75" value="是" style="edgeLabel;html=1;align=center;verticalAlign=middle;resizable=0;points=[];" vertex="1" connectable="0" parent="UZCxcJer-DqImSYxnbFZ-74">
          <mxGeometry x="-0.4583" y="-1" relative="1" as="geometry">
            <mxPoint as="offset" />
          </mxGeometry>
        </mxCell>
        <mxCell id="UZCxcJer-DqImSYxnbFZ-66" value="是否需要审核" style="rhombus;whiteSpace=wrap;html=1;rounded=0;" vertex="1" parent="UZCxcJer-DqImSYxnbFZ-38">
          <mxGeometry x="180" y="460" width="80" height="40" as="geometry" />
        </mxCell>
        <mxCell id="UZCxcJer-DqImSYxnbFZ-77" value="" style="edgeStyle=orthogonalEdgeStyle;rounded=0;orthogonalLoop=1;jettySize=auto;html=1;" edge="1" parent="UZCxcJer-DqImSYxnbFZ-38" source="UZCxcJer-DqImSYxnbFZ-73" target="UZCxcJer-DqImSYxnbFZ-76">
          <mxGeometry relative="1" as="geometry" />
        </mxCell>
        <mxCell id="UZCxcJer-DqImSYxnbFZ-73" value="待调度员审核" style="whiteSpace=wrap;html=1;rounded=0;" vertex="1" parent="UZCxcJer-DqImSYxnbFZ-38">
          <mxGeometry x="160" y="540" width="120" height="60" as="geometry" />
        </mxCell>
        <mxCell id="UZCxcJer-DqImSYxnbFZ-60" value="" style="ellipse;html=1;shape=endState;fillColor=#000000;strokeColor=#ff0000;" vertex="1" parent="UZCxcJer-DqImSYxnbFZ-38">
          <mxGeometry x="205" y="770" width="30" height="30" as="geometry" />
        </mxCell>
        <mxCell id="UZCxcJer-DqImSYxnbFZ-63" style="edgeStyle=orthogonalEdgeStyle;rounded=0;orthogonalLoop=1;jettySize=auto;html=1;entryX=0;entryY=0.5;entryDx=0;entryDy=0;exitX=0;exitY=0.5;exitDx=0;exitDy=0;" edge="1" parent="UZCxcJer-DqImSYxnbFZ-38">
          <mxGeometry relative="1" as="geometry">
            <mxPoint x="160" y="166" as="sourcePoint" />
            <mxPoint x="205" y="781" as="targetPoint" />
            <Array as="points">
              <mxPoint x="80" y="166" />
              <mxPoint x="80" y="786" />
              <mxPoint x="200" y="786" />
              <mxPoint x="200" y="781" />
            </Array>
          </mxGeometry>
        </mxCell>
        <mxCell id="UZCxcJer-DqImSYxnbFZ-64" value="不接单&lt;br&gt;原因" style="edgeLabel;html=1;align=center;verticalAlign=middle;resizable=0;points=[];" vertex="1" connectable="0" parent="UZCxcJer-DqImSYxnbFZ-63">
          <mxGeometry x="-0.8575" y="-2" relative="1" as="geometry">
            <mxPoint as="offset" />
          </mxGeometry>
        </mxCell>
        <mxCell id="UZCxcJer-DqImSYxnbFZ-68" style="edgeStyle=orthogonalEdgeStyle;rounded=0;orthogonalLoop=1;jettySize=auto;html=1;exitX=0;exitY=0.5;exitDx=0;exitDy=0;entryX=0;entryY=0.5;entryDx=0;entryDy=0;" edge="1" parent="UZCxcJer-DqImSYxnbFZ-38">
          <mxGeometry relative="1" as="geometry">
            <mxPoint x="180" y="475" as="sourcePoint" />
            <mxPoint x="205" y="780" as="targetPoint" />
            <Array as="points">
              <mxPoint x="110" y="475" />
              <mxPoint x="110" y="785" />
              <mxPoint x="200" y="785" />
              <mxPoint x="200" y="780" />
            </Array>
          </mxGeometry>
        </mxCell>
        <mxCell id="UZCxcJer-DqImSYxnbFZ-69" value="否" style="edgeLabel;html=1;align=center;verticalAlign=middle;resizable=0;points=[];" vertex="1" connectable="0" parent="UZCxcJer-DqImSYxnbFZ-68">
          <mxGeometry x="-0.6721" relative="1" as="geometry">
            <mxPoint as="offset" />
          </mxGeometry>
        </mxCell>
        <mxCell id="UZCxcJer-DqImSYxnbFZ-80" style="edgeStyle=orthogonalEdgeStyle;rounded=0;orthogonalLoop=1;jettySize=auto;html=1;entryX=0.5;entryY=0;entryDx=0;entryDy=0;" edge="1" parent="UZCxcJer-DqImSYxnbFZ-38" source="UZCxcJer-DqImSYxnbFZ-76" target="UZCxcJer-DqImSYxnbFZ-60">
          <mxGeometry relative="1" as="geometry" />
        </mxCell>
        <mxCell id="UZCxcJer-DqImSYxnbFZ-81" value="同意" style="edgeLabel;html=1;align=center;verticalAlign=middle;resizable=0;points=[];" vertex="1" connectable="0" parent="UZCxcJer-DqImSYxnbFZ-80">
          <mxGeometry x="-0.1111" y="-1" relative="1" as="geometry">
            <mxPoint as="offset" />
          </mxGeometry>
        </mxCell>
        <mxCell id="UZCxcJer-DqImSYxnbFZ-76" value="" style="rhombus;whiteSpace=wrap;html=1;rounded=0;" vertex="1" parent="UZCxcJer-DqImSYxnbFZ-38">
          <mxGeometry x="180" y="630" width="80" height="50" as="geometry" />
        </mxCell>
        <mxCell id="UZCxcJer-DqImSYxnbFZ-78" style="edgeStyle=orthogonalEdgeStyle;rounded=0;orthogonalLoop=1;jettySize=auto;html=1;entryX=1.007;entryY=0.375;entryDx=0;entryDy=0;entryPerimeter=0;exitX=1;exitY=0.5;exitDx=0;exitDy=0;" edge="1" parent="UZCxcJer-DqImSYxnbFZ-38" source="UZCxcJer-DqImSYxnbFZ-76" target="UZCxcJer-DqImSYxnbFZ-57">
          <mxGeometry relative="1" as="geometry">
            <Array as="points">
              <mxPoint x="330" y="655" />
              <mxPoint x="330" y="383" />
            </Array>
          </mxGeometry>
        </mxCell>
        <mxCell id="UZCxcJer-DqImSYxnbFZ-79" value="不同意，退回修改" style="edgeLabel;html=1;align=center;verticalAlign=middle;resizable=0;points=[];" vertex="1" connectable="0" parent="UZCxcJer-DqImSYxnbFZ-78">
          <mxGeometry x="0.0936" relative="1" as="geometry">
            <mxPoint as="offset" />
          </mxGeometry>
        </mxCell>
      </root>
    </mxGraphModel>
  </diagram>
</mxfile>
